<svg width="128" height="128" viewBox="0 0 128 128" fill="none" xmlns="http://www.w3.org/2000/svg">
    <g filter="url(#filter0_i_963_2)">
        <rect width="128" height="128" rx="8" fill="url(#paint0_linear_963_2)" />
        <rect x="1" y="1" width="126" height="126" rx="7" stroke="#232323" stroke-width="2" />
        <g filter="url(#filter1_d_963_2)">
            <mask id="path-3-outside-1_963_2" maskUnits="userSpaceOnUse" x="29" y="29" width="70"
                height="69" fill="black">
                <rect fill="white" x="29" y="29" width="70" height="69" />
                <path
                    d="M90.6615 34.352C93.9655 35.976 95.6175 37.768 95.6175 39.728C95.6175 40.624 95.1975 41.968 94.3575 43.76L71.1735 90.8C70.5575 92.032 69.6055 93.04 68.3175 93.824C67.0855 94.552 65.7975 94.916 64.4535 94.916H63.6135C62.2135 94.916 60.8695 94.552 59.5815 93.824C58.3495 93.04 57.4255 92.032 56.8095 90.8L33.6255 43.76C32.7855 41.968 32.3655 40.624 32.3655 39.728C32.3655 37.768 34.0175 35.976 37.3215 34.352C39.1695 33.4 40.5695 32.924 41.5215 32.924C42.5295 32.924 43.2855 33.036 43.7895 33.26C44.2935 33.484 44.7695 33.876 45.2175 34.436C45.7215 35.108 46.1695 35.864 46.5615 36.704C47.0095 37.488 48.1015 39.812 49.8375 43.676C51.5735 47.484 53.4215 51.544 55.3815 55.856C57.3975 60.168 59.2735 64.256 61.0095 68.12C62.8015 71.928 63.8095 74.056 64.0335 74.504L80.8335 37.712C81.2815 36.648 81.6735 35.808 82.0095 35.192C83.0175 33.68 84.2495 32.924 85.7055 32.924C87.1615 32.924 88.8135 33.4 90.6615 34.352Z" />
            </mask>
            <path
                d="M90.6615 34.352C93.9655 35.976 95.6175 37.768 95.6175 39.728C95.6175 40.624 95.1975 41.968 94.3575 43.76L71.1735 90.8C70.5575 92.032 69.6055 93.04 68.3175 93.824C67.0855 94.552 65.7975 94.916 64.4535 94.916H63.6135C62.2135 94.916 60.8695 94.552 59.5815 93.824C58.3495 93.04 57.4255 92.032 56.8095 90.8L33.6255 43.76C32.7855 41.968 32.3655 40.624 32.3655 39.728C32.3655 37.768 34.0175 35.976 37.3215 34.352C39.1695 33.4 40.5695 32.924 41.5215 32.924C42.5295 32.924 43.2855 33.036 43.7895 33.26C44.2935 33.484 44.7695 33.876 45.2175 34.436C45.7215 35.108 46.1695 35.864 46.5615 36.704C47.0095 37.488 48.1015 39.812 49.8375 43.676C51.5735 47.484 53.4215 51.544 55.3815 55.856C57.3975 60.168 59.2735 64.256 61.0095 68.12C62.8015 71.928 63.8095 74.056 64.0335 74.504L80.8335 37.712C81.2815 36.648 81.6735 35.808 82.0095 35.192C83.0175 33.68 84.2495 32.924 85.7055 32.924C87.1615 32.924 88.8135 33.4 90.6615 34.352Z"
                fill="white" />
            <path
                d="M90.6615 34.352L89.2876 37.0189L89.3127 37.0319L89.3381 37.0443L90.6615 34.352ZM94.3575 43.76L97.0484 45.0862L97.0614 45.0599L97.0738 45.0333L94.3575 43.76ZM71.1735 90.8L73.8568 92.1416L73.8606 92.134L73.8644 92.1262L71.1735 90.8ZM68.3175 93.824L69.8437 96.4068L69.8606 96.3968L69.8773 96.3866L68.3175 93.824ZM59.5815 93.824L57.9708 96.355L58.037 96.3971L58.1053 96.4357L59.5815 93.824ZM56.8095 90.8L54.1185 92.1262L54.1223 92.134L54.1262 92.1416L56.8095 90.8ZM33.6255 43.76L30.9091 45.0333L30.9216 45.0599L30.9345 45.0862L33.6255 43.76ZM37.3215 34.352L38.6448 37.0443L38.6702 37.0319L38.6953 37.0189L37.3215 34.352ZM45.2175 34.436L47.6175 32.636L47.5894 32.5985L47.5601 32.5619L45.2175 34.436ZM46.5615 36.704L43.8429 37.9727L43.8953 38.0849L43.9567 38.1924L46.5615 36.704ZM49.8375 43.676L47.101 44.9054L47.1043 44.9129L47.1077 44.9204L49.8375 43.676ZM55.3815 55.856L52.6504 57.0974L52.657 57.112L52.6638 57.1266L55.3815 55.856ZM61.0095 68.12L58.273 69.3494L58.2838 69.3735L58.295 69.3974L61.0095 68.12ZM64.0335 74.504L61.3502 75.8456L64.1562 81.4577L66.7624 75.7501L64.0335 74.504ZM80.8335 37.712L83.5624 38.9581L83.581 38.9174L83.5984 38.8762L80.8335 37.712ZM82.0095 35.192L79.5133 33.5279L79.4395 33.6386L79.3758 33.7554L82.0095 35.192ZM89.3381 37.0443C92.5246 38.6106 92.6175 39.6584 92.6175 39.728H98.6175C98.6175 35.8776 95.4063 33.3414 91.9848 31.6596L89.3381 37.0443ZM92.6175 39.728C92.6175 39.7245 92.6171 39.7869 92.5901 39.9311C92.5636 40.0724 92.5168 40.2644 92.439 40.5132C92.282 41.0158 92.0247 41.6684 91.6411 42.4867L97.0738 45.0333C97.9279 43.2114 98.6175 41.3423 98.6175 39.728H92.6175ZM91.6665 42.4338L68.4825 89.4738L73.8644 92.1262L97.0484 45.0862L91.6665 42.4338ZM68.4902 89.4584C68.1501 90.1385 67.6111 90.7419 66.7576 91.2614L69.8773 96.3866C71.5998 95.3381 72.9648 93.9255 73.8568 92.1416L68.4902 89.4584ZM66.7913 91.2412C65.9904 91.7145 65.2256 91.916 64.4535 91.916V97.916C66.3694 97.916 68.1805 97.3895 69.8437 96.4068L66.7913 91.2412ZM64.4535 91.916H63.6135V97.916H64.4535V91.916ZM63.6135 91.916C62.7604 91.916 61.9218 91.7008 61.0576 91.2123L58.1053 96.4357C59.8171 97.4032 61.6665 97.916 63.6135 97.916V91.916ZM61.1921 91.293C60.3901 90.7826 59.8508 90.1744 59.4928 89.4584L54.1262 92.1416C55.0001 93.8896 56.3089 95.2974 57.9708 96.355L61.1921 91.293ZM59.5004 89.4738L36.3164 42.4338L30.9345 45.0862L54.1185 92.1262L59.5004 89.4738ZM36.3418 42.4867C35.9583 41.6684 35.701 41.0158 35.5439 40.5132C35.4662 40.2644 35.4193 40.0724 35.3928 39.9311C35.3658 39.7869 35.3655 39.7245 35.3655 39.728H29.3655C29.3655 41.3423 30.0551 43.2114 30.9091 45.0333L36.3418 42.4867ZM35.3655 39.728C35.3655 39.6584 35.4583 38.6106 38.6448 37.0443L35.9981 31.6596C32.5766 33.3414 29.3655 35.8776 29.3655 39.728H35.3655ZM38.6953 37.0189C39.5361 36.5858 40.2068 36.2969 40.7232 36.1213C40.9785 36.0345 41.175 35.9827 41.3185 35.9536C41.4647 35.924 41.527 35.924 41.5215 35.924V29.924C39.7906 29.924 37.8311 30.7148 35.9476 31.6851L38.6953 37.0189ZM41.5215 35.924C41.9218 35.924 42.2098 35.9467 42.4048 35.9756C42.6094 36.0059 42.642 36.033 42.5711 36.0014L45.0079 30.5186C43.9225 30.0362 42.6587 29.924 41.5215 29.924V35.924ZM42.5711 36.0014C42.5246 35.9808 42.6397 36.0162 42.8749 36.3101L47.5601 32.5619C46.8992 31.7358 46.0624 30.9872 45.0079 30.5186L42.5711 36.0014ZM42.8175 36.236C43.1852 36.7263 43.5296 37.3012 43.8429 37.9727L49.28 35.4353C48.8094 34.4268 48.2577 33.4897 47.6175 32.636L42.8175 36.236ZM43.9567 38.1924C44.3145 38.8184 45.3364 40.9778 47.101 44.9054L52.574 42.4466C50.8666 38.6462 49.7045 36.1576 49.1662 35.2156L43.9567 38.1924ZM47.1077 44.9204C48.8432 48.7273 50.6908 52.7863 52.6504 57.0974L58.1126 54.6146C56.1522 50.3017 54.3037 46.2407 52.5672 42.4316L47.1077 44.9204ZM52.6638 57.1266C54.6742 61.4266 56.5438 65.5008 58.273 69.3494L63.746 66.8906C62.0031 63.0112 60.1207 58.9094 58.0991 54.5854L52.6638 57.1266ZM58.295 69.3974C60.0749 73.1797 61.1054 75.356 61.3502 75.8456L66.7167 73.1624C66.5136 72.756 65.528 70.6763 63.7239 66.8426L58.295 69.3974ZM66.7624 75.7501L83.5624 38.9581L78.1045 36.4659L61.3045 73.2579L66.7624 75.7501ZM83.5984 38.8762C84.0287 37.8541 84.3762 37.118 84.6432 36.6286L79.3758 33.7554C78.9708 34.498 78.5342 35.4419 78.0686 36.5478L83.5984 38.8762ZM84.5056 36.8561C85.1138 35.9439 85.5053 35.924 85.7055 35.924V29.924C82.9937 29.924 80.9212 31.4161 79.5133 33.5279L84.5056 36.8561ZM85.7055 35.924C86.5233 35.924 87.6946 36.1983 89.2876 37.0189L92.0353 31.6851C89.9324 30.6017 87.7996 29.924 85.7055 29.924V35.924Z"
                fill="#232323" mask="url(#path-3-outside-1_963_2)" />
        </g>
    </g>
    <defs>
        <filter id="filter0_i_963_2" x="0" y="0" width="128" height="128"
            filterUnits="userSpaceOnUse" color-interpolation-filters="sRGB">
            <feFlood flood-opacity="0" result="BackgroundImageFix" />
            <feBlend mode="normal" in="SourceGraphic" in2="BackgroundImageFix" result="shape" />
            <feColorMatrix in="SourceAlpha" type="matrix"
                values="0 0 0 0 0 0 0 0 0 0 0 0 0 0 0 0 0 0 127 0" result="hardAlpha" />
            <feMorphology radius="6" operator="erode" in="SourceAlpha"
                result="effect1_innerShadow_963_2" />
            <feOffset />
            <feGaussianBlur stdDeviation="2" />
            <feComposite in2="hardAlpha" operator="arithmetic" k2="-1" k3="1" />
            <feColorMatrix type="matrix"
                values="0 0 0 0 0.137255 0 0 0 0 0.137255 0 0 0 0 0.137255 0 0 0 0.25 0" />
            <feBlend mode="normal" in2="shape" result="effect1_innerShadow_963_2" />
        </filter>
        <filter id="filter1_d_963_2" x="18.3652" y="18.924" width="91.2524" height="89.9921"
            filterUnits="userSpaceOnUse" color-interpolation-filters="sRGB">
            <feFlood flood-opacity="0" result="BackgroundImageFix" />
            <feColorMatrix in="SourceAlpha" type="matrix"
                values="0 0 0 0 0 0 0 0 0 0 0 0 0 0 0 0 0 0 127 0" result="hardAlpha" />
            <feOffset />
            <feGaussianBlur stdDeviation="7" />
            <feComposite in2="hardAlpha" operator="out" />
            <feColorMatrix type="matrix" values="0 0 0 0 0 0 0 0 0 0 0 0 0 0 0 0 0 0 0.25 0" />
            <feBlend mode="normal" in2="BackgroundImageFix" result="effect1_dropShadow_963_2" />
            <feBlend mode="normal" in="SourceGraphic" in2="effect1_dropShadow_963_2" result="shape" />
        </filter>
        <linearGradient id="paint0_linear_963_2" x1="0" y1="0" x2="128" y2="128"
            gradientUnits="userSpaceOnUse">
            <stop stop-color="#A899FF" />
            <stop offset="1" stop-color="#4D4098" />
        </linearGradient>
    </defs>
</svg>
    